<svg width="84" height="47" viewBox="0 0 84 47" fill="none" xmlns="http://www.w3.org/2000/svg">
    <path d="M39.0356 2.592V3.112C38.6543 3.25067 38.2556 3.554 37.8396 4.022C37.4236 4.47267 37.0596 5.20067 36.7476 6.206L32.1716 21.052C32.033 21.0347 31.8856 21.026 31.7296 21.026C31.5736 21.026 31.4176 21.026 31.2616 21.026C31.1056 21.026 30.9496 21.026 30.7936 21.026C30.6376 21.026 30.4903 21.0347 30.3516 21.052L24.8916 4.516C24.7183 3.97867 24.5016 3.61467 24.2416 3.424C23.999 3.23333 23.739 3.12933 23.4616 3.112V2.592C23.947 2.60933 24.519 2.62667 25.1776 2.644C25.8536 2.66133 26.521 2.67 27.1796 2.67C27.9423 2.67 28.653 2.66133 29.3116 2.644C29.9876 2.62667 30.525 2.60933 30.9236 2.592V3.112C30.4036 3.12933 29.9876 3.19 29.6756 3.294C29.381 3.398 29.2076 3.59733 29.1556 3.892C29.121 4.18667 29.2076 4.65467 29.4156 5.296L33.1076 16.58L32.5096 17.646L35.4476 8.312C35.8636 6.99467 36.063 5.96333 36.0456 5.218C36.0283 4.47267 35.829 3.944 35.4476 3.632C35.0663 3.30267 34.5203 3.12933 33.8096 3.112V2.592C34.399 2.60933 34.9536 2.62667 35.4736 2.644C35.9936 2.66133 36.5136 2.67 37.0336 2.67C37.4323 2.67 37.7963 2.66133 38.1256 2.644C38.4723 2.62667 38.7756 2.60933 39.0356 2.592ZM20.4716 2.592V3.112C20.125 3.164 19.8823 3.294 19.7436 3.502C19.605 3.69267 19.5443 3.95267 19.5616 4.282C19.5963 4.594 19.6743 4.932 19.7956 5.296L23.7736 16.84L23.0716 17.776L26.3996 8.052L26.7636 8.754L22.6816 21.052C22.543 21.0347 22.3956 21.026 22.2396 21.026C22.0836 21.026 21.9276 21.026 21.7716 21.026C21.6156 21.026 21.4596 21.026 21.3036 21.026C21.1476 21.026 21.0003 21.0347 20.8616 21.052L15.0376 4.776C14.8123 4.13467 14.5436 3.70133 14.2316 3.476C13.937 3.25067 13.6596 3.12933 13.3996 3.112V2.592C13.9196 2.60933 14.535 2.62667 15.2456 2.644C15.9563 2.66133 16.6323 2.67 17.2736 2.67C17.967 2.67 18.5823 2.66133 19.1196 2.644C19.6743 2.62667 20.125 2.60933 20.4716 2.592ZM42.6697 21.182C41.8551 21.182 41.1877 21.026 40.6677 20.714C40.1477 20.402 39.7664 19.9947 39.5237 19.492C39.2984 18.9893 39.1857 18.4607 39.1857 17.906C39.1857 17.178 39.3504 16.5887 39.6797 16.138C40.0091 15.67 40.4337 15.2973 40.9537 15.02C41.4911 14.7253 42.0544 14.4827 42.6437 14.292C43.2331 14.1013 43.7877 13.9193 44.3077 13.746C44.8451 13.5553 45.2784 13.3387 45.6077 13.096C45.9371 12.836 46.1017 12.5067 46.1017 12.108V9.794C46.1017 9.51667 46.0497 9.21333 45.9457 8.884C45.8591 8.55467 45.6857 8.26867 45.4257 8.026C45.1657 7.78333 44.7757 7.662 44.2557 7.662C43.9784 7.662 43.7097 7.70533 43.4497 7.792C43.2071 7.86133 42.9904 7.96533 42.7997 8.104C43.4064 8.32933 43.8484 8.65 44.1257 9.066C44.4031 9.46467 44.5417 9.90667 44.5417 10.392C44.5417 11.0853 44.2991 11.6313 43.8137 12.03C43.3284 12.4287 42.7564 12.628 42.0977 12.628C41.4044 12.628 40.8671 12.4113 40.4857 11.978C40.1044 11.5447 39.9137 11.0073 39.9137 10.366C39.9137 9.82867 40.0437 9.378 40.3037 9.014C40.5811 8.63267 40.9884 8.286 41.5257 7.974C42.0457 7.67933 42.6697 7.47133 43.3977 7.35C44.1257 7.21133 44.8884 7.142 45.6857 7.142C46.5351 7.142 47.3237 7.22867 48.0517 7.402C48.7797 7.558 49.4037 7.90467 49.9237 8.442C50.2877 8.82333 50.5217 9.3 50.6257 9.872C50.7297 10.444 50.7817 11.1807 50.7817 12.082V19.05C50.7817 19.4833 50.8077 19.778 50.8597 19.934C50.9291 20.09 51.0417 20.168 51.1977 20.168C51.3364 20.168 51.4664 20.1247 51.5877 20.038C51.7264 19.9513 51.8564 19.8647 51.9777 19.778L52.2377 20.22C51.8564 20.5493 51.3797 20.792 50.8077 20.948C50.2531 21.104 49.6637 21.182 49.0397 21.182C48.2944 21.182 47.7137 21.0953 47.2977 20.922C46.8991 20.7313 46.6131 20.4887 46.4397 20.194C46.2837 19.882 46.1971 19.5527 46.1797 19.206C45.8157 19.778 45.3564 20.2547 44.8017 20.636C44.2644 21 43.5537 21.182 42.6697 21.182ZM45.1397 19.102C45.3304 19.102 45.4951 19.076 45.6337 19.024C45.7897 18.9547 45.9457 18.8333 46.1017 18.66V13.174C45.9804 13.3993 45.8157 13.6247 45.6077 13.85C45.4171 14.058 45.2177 14.2747 45.0097 14.5C44.8017 14.7253 44.6024 14.968 44.4117 15.228C44.2384 15.488 44.0911 15.7913 43.9697 16.138C43.8657 16.4673 43.8137 16.8573 43.8137 17.308C43.8137 17.9667 43.9351 18.4347 44.1777 18.712C44.4377 18.972 44.7584 19.102 45.1397 19.102ZM62.9822 7.142C63.7796 7.142 64.4036 7.246 64.8542 7.454C65.3222 7.64467 65.6776 7.88733 65.9202 8.182C66.1802 8.494 66.3709 8.91 66.4922 9.43C66.6136 9.95 66.6742 10.652 66.6742 11.536V18.582C66.6742 19.31 66.7782 19.804 66.9862 20.064C67.2116 20.324 67.5929 20.454 68.1302 20.454V21C67.7836 20.9827 67.2549 20.9653 66.5442 20.948C65.8509 20.9133 65.1662 20.896 64.4902 20.896C63.7622 20.896 63.0516 20.9133 62.3582 20.948C61.6649 20.9653 61.1449 20.9827 60.7982 21V20.454C61.2489 20.454 61.5609 20.324 61.7342 20.064C61.9076 19.804 61.9942 19.31 61.9942 18.582V10.132C61.9942 9.768 61.9509 9.46467 61.8642 9.222C61.7776 8.97933 61.6389 8.79733 61.4482 8.676C61.2749 8.55467 61.0322 8.494 60.7202 8.494C60.4082 8.494 60.1049 8.572 59.8102 8.728C59.5329 8.884 59.2989 9.10933 59.1082 9.404C58.9349 9.68133 58.8482 10.002 58.8482 10.366V18.582C58.8482 19.31 58.9349 19.804 59.1082 20.064C59.2989 20.324 59.6109 20.454 60.0442 20.454V21C59.7149 20.9827 59.2296 20.9653 58.5882 20.948C57.9469 20.9133 57.2882 20.896 56.6122 20.896C55.8842 20.896 55.1476 20.9133 54.4022 20.948C53.6569 20.9653 53.0936 20.9827 52.7122 21V20.454C53.2496 20.454 53.6222 20.324 53.8302 20.064C54.0556 19.804 54.1682 19.31 54.1682 18.582V10.34C54.1682 9.56 54.0642 8.988 53.8562 8.624C53.6482 8.24267 53.2669 8.052 52.7122 8.052V7.506C53.2669 7.558 53.8042 7.584 54.3242 7.584C55.1909 7.584 55.9969 7.558 56.7422 7.506C57.5049 7.43667 58.2069 7.34133 58.8482 7.22V9.092C59.2642 8.39867 59.8189 7.90467 60.5122 7.61C61.2229 7.298 62.0462 7.142 62.9822 7.142ZM82.1183 0.667998V18.14C82.1183 18.92 82.2223 19.5007 82.4303 19.882C82.6556 20.246 83.0369 20.428 83.5743 20.428V20.974C83.0369 20.922 82.4996 20.896 81.9623 20.896C81.0956 20.896 80.2896 20.922 79.5443 20.974C78.7989 21.026 78.0969 21.1213 77.4383 21.26V3.788C77.4383 3.008 77.3343 2.436 77.1263 2.072C76.9183 1.69067 76.5369 1.5 75.9823 1.5V0.953999C76.5369 1.006 77.0743 1.032 77.5943 1.032C78.4609 1.032 79.2669 1.006 80.0123 0.953999C80.7749 0.884666 81.4769 0.789332 82.1183 0.667998ZM74.7343 7.142C75.4969 7.142 76.1383 7.23733 76.6583 7.428C77.1783 7.60133 77.6376 7.88733 78.0363 8.286L77.7503 8.572C77.5249 8.38133 77.2736 8.24267 76.9963 8.156C76.7189 8.052 76.4589 8 76.2163 8C75.4189 8 74.8209 8.51133 74.4223 9.534C74.0236 10.5567 73.8243 12.1253 73.8243 14.24C73.8243 15.7653 73.9023 16.9527 74.0583 17.802C74.2143 18.634 74.4223 19.2147 74.6823 19.544C74.9596 19.856 75.2543 20.012 75.5663 20.012C76.0516 20.012 76.4849 19.8387 76.8663 19.492C77.2476 19.128 77.4383 18.6773 77.4383 18.14V19.414C77.0916 20.0727 76.6669 20.5667 76.1643 20.896C75.6616 21.208 75.0289 21.364 74.2663 21.364C73.2783 21.364 72.3769 21.1213 71.5623 20.636C70.7649 20.1333 70.1323 19.3533 69.6643 18.296C69.1963 17.2387 68.9623 15.8607 68.9623 14.162C68.9623 12.5847 69.1963 11.2847 69.6643 10.262C70.1496 9.222 70.8256 8.442 71.6923 7.922C72.5589 7.402 73.5729 7.142 74.7343 7.142ZM19.4855 27.592V28.112C19.0868 28.3027 18.6535 28.684 18.1855 29.256C17.7175 29.8107 17.2841 30.6427 16.8855 31.752L11.8155 46C11.6075 45.9827 11.3821 45.974 11.1395 45.974C10.9141 45.9567 10.6801 45.948 10.4375 45.948C10.2121 45.948 9.97814 45.9567 9.73547 45.974C9.51014 45.974 9.29347 45.9827 9.08547 46L2.27347 29.776C2.03081 29.1693 1.77081 28.7447 1.49347 28.502C1.23347 28.2593 0.982138 28.1293 0.739472 28.112V27.592C1.36347 27.6093 2.09147 27.6267 2.92347 27.644C3.77281 27.6613 4.62214 27.67 5.47147 27.67C6.35547 27.67 7.18747 27.6613 7.96747 27.644C8.74747 27.6267 9.37147 27.6093 9.83947 27.592V28.112C9.30214 28.1293 8.87747 28.19 8.56547 28.294C8.25347 28.398 8.07147 28.606 8.01947 28.918C7.98481 29.2127 8.08881 29.672 8.33147 30.296L13.0115 41.814L12.3875 42.62L15.3515 34.3C15.8888 32.7747 16.1748 31.57 16.2095 30.686C16.2441 29.7847 16.0708 29.1347 15.6895 28.736C15.3081 28.3373 14.7708 28.1293 14.0775 28.112V27.592C14.7361 27.6093 15.3168 27.6267 15.8195 27.644C16.3395 27.6613 16.8941 27.67 17.4835 27.67C17.8301 27.67 18.1855 27.6613 18.5495 27.644C18.9135 27.6267 19.2255 27.6093 19.4855 27.592ZM22.3217 25.668C23.223 25.668 23.9164 25.8587 24.4017 26.24C24.9044 26.604 25.1557 27.1587 25.1557 27.904C25.1557 28.6493 24.9044 29.2127 24.4017 29.594C23.9164 29.958 23.223 30.14 22.3217 30.14C21.4204 30.14 20.7184 29.958 20.2157 29.594C19.7304 29.2127 19.4877 28.6493 19.4877 27.904C19.4877 27.1587 19.7304 26.604 20.2157 26.24C20.7184 25.8587 21.4204 25.668 22.3217 25.668ZM24.8177 32.22V43.582C24.8177 44.31 24.9217 44.804 25.1297 45.064C25.355 45.324 25.7364 45.454 26.2737 45.454V46C25.927 45.9827 25.407 45.9653 24.7137 45.948C24.0204 45.9133 23.3097 45.896 22.5817 45.896C21.8537 45.896 21.117 45.9133 20.3717 45.948C19.6264 45.9653 19.063 45.9827 18.6817 46V45.454C19.219 45.454 19.5917 45.324 19.7997 45.064C20.025 44.804 20.1377 44.31 20.1377 43.582V35.34C20.1377 34.56 20.0337 33.988 19.8257 33.624C19.6177 33.2427 19.2364 33.052 18.6817 33.052V32.506C19.2364 32.558 19.7737 32.584 20.2937 32.584C21.1604 32.584 21.9664 32.558 22.7117 32.506C23.4744 32.4367 24.1764 32.3413 24.8177 32.22ZM33.9457 32.142C35.4711 32.142 36.6671 32.5927 37.5337 33.494C38.4177 34.378 38.8597 35.8687 38.8597 37.966H30.7217L30.6697 37.472H35.0637C35.0811 36.6227 35.0464 35.8427 34.9597 35.132C34.8731 34.404 34.7344 33.8233 34.5437 33.39C34.3531 32.9567 34.0931 32.74 33.7637 32.74C33.2957 32.74 32.9144 33.1127 32.6197 33.858C32.3251 34.586 32.1344 35.8427 32.0477 37.628L32.1517 37.836C32.1344 38.0093 32.1257 38.1827 32.1257 38.356C32.1257 38.5293 32.1257 38.7113 32.1257 38.902C32.1257 40.1153 32.2731 41.06 32.5677 41.736C32.8797 42.412 33.2611 42.88 33.7117 43.14C34.1797 43.4 34.6477 43.53 35.1157 43.53C35.3584 43.53 35.6444 43.4953 35.9737 43.426C36.3204 43.3567 36.6931 43.2007 37.0917 42.958C37.4904 42.698 37.8804 42.308 38.2617 41.788L38.7037 41.944C38.4957 42.6373 38.1577 43.3307 37.6897 44.024C37.2391 44.7 36.6497 45.2633 35.9217 45.714C35.1937 46.1473 34.3097 46.364 33.2697 46.364C32.1604 46.364 31.1464 46.1387 30.2277 45.688C29.3264 45.2373 28.6071 44.492 28.0697 43.452C27.5324 42.412 27.2637 41.0167 27.2637 39.266C27.2637 37.602 27.5584 36.25 28.1477 35.21C28.7371 34.1527 29.5344 33.3813 30.5397 32.896C31.5624 32.3933 32.6977 32.142 33.9457 32.142ZM46.6404 32.506V33.052C46.2764 33.052 45.9644 33.078 45.7044 33.13C45.4618 33.1647 45.2971 33.2513 45.2104 33.39C45.1238 33.5287 45.1151 33.7453 45.1844 34.04L47.4984 41.762L47.0564 42.36L49.5784 32.532L50.1244 32.818L46.6664 46C46.2504 45.9653 45.8258 45.948 45.3924 45.948C44.9764 45.948 44.5604 45.9653 44.1444 46L40.1404 34.508C39.8978 33.8147 39.6291 33.3987 39.3344 33.26C39.0571 33.1213 38.8231 33.052 38.6324 33.052V32.506C39.3258 32.558 40.0451 32.6013 40.7904 32.636C41.5358 32.6533 42.3591 32.662 43.2604 32.662C43.7978 32.662 44.3611 32.6447 44.9504 32.61C45.5571 32.5753 46.1204 32.5407 46.6404 32.506ZM59.7444 32.506V33.052C59.4151 33.1733 59.0944 33.4073 58.7824 33.754C58.4704 34.1007 58.1758 34.7073 57.8984 35.574L54.6484 46C54.2324 45.9653 53.8078 45.948 53.3744 45.948C52.9584 45.948 52.5424 45.9653 52.1264 46L48.8244 36.406L49.6044 32.532C50.0551 32.5667 50.5144 32.584 50.9824 32.584C51.4504 32.5667 51.9098 32.5493 52.3604 32.532L55.5844 42.88L55.2464 42.308L56.4424 38.33C56.8064 37.134 56.9451 36.1633 56.8584 35.418C56.7718 34.6553 56.5378 34.0833 56.1564 33.702C55.7751 33.3207 55.3071 33.104 54.7524 33.052V32.506C54.9951 32.5233 55.3071 32.5407 55.6884 32.558C56.0871 32.5753 56.4771 32.5927 56.8584 32.61C57.2398 32.61 57.5344 32.61 57.7424 32.61C58.0544 32.61 58.4184 32.6013 58.8344 32.584C59.2504 32.5667 59.5538 32.5407 59.7444 32.506ZM66.4082 32.142C67.9335 32.142 69.1295 32.5927 69.9962 33.494C70.8802 34.378 71.3222 35.8687 71.3222 37.966H63.1842L63.1322 37.472H67.5262C67.5435 36.6227 67.5088 35.8427 67.4222 35.132C67.3355 34.404 67.1968 33.8233 67.0062 33.39C66.8155 32.9567 66.5555 32.74 66.2262 32.74C65.7582 32.74 65.3768 33.1127 65.0822 33.858C64.7875 34.586 64.5968 35.8427 64.5102 37.628L64.6142 37.836C64.5968 38.0093 64.5882 38.1827 64.5882 38.356C64.5882 38.5293 64.5882 38.7113 64.5882 38.902C64.5882 40.1153 64.7355 41.06 65.0302 41.736C65.3422 42.412 65.7235 42.88 66.1742 43.14C66.6422 43.4 67.1102 43.53 67.5782 43.53C67.8208 43.53 68.1068 43.4953 68.4362 43.426C68.7828 43.3567 69.1555 43.2007 69.5542 42.958C69.9528 42.698 70.3428 42.308 70.7242 41.788L71.1662 41.944C70.9582 42.6373 70.6202 43.3307 70.1522 44.024C69.7015 44.7 69.1122 45.2633 68.3842 45.714C67.6562 46.1473 66.7722 46.364 65.7322 46.364C64.6228 46.364 63.6088 46.1387 62.6902 45.688C61.7888 45.2373 61.0695 44.492 60.5322 43.452C59.9948 42.412 59.7262 41.0167 59.7262 39.266C59.7262 37.602 60.0208 36.25 60.6102 35.21C61.1995 34.1527 61.9968 33.3813 63.0022 32.896C64.0248 32.3933 65.1602 32.142 66.4082 32.142ZM81.5184 32.142C82.1424 32.142 82.6278 32.2807 82.9744 32.558C83.3211 32.818 83.5638 33.156 83.7024 33.572C83.8411 33.9707 83.9104 34.3693 83.9104 34.768C83.9104 35.548 83.6851 36.172 83.2344 36.64C82.8011 37.0907 82.2291 37.316 81.5184 37.316C80.7558 37.316 80.1751 37.1427 79.7764 36.796C79.3951 36.4493 79.2044 35.9987 79.2044 35.444C79.2044 34.8547 79.3258 34.3693 79.5684 33.988C79.8284 33.6067 80.1491 33.286 80.5304 33.026C80.2184 33.026 79.9411 33.0867 79.6984 33.208C79.4904 33.2947 79.2911 33.416 79.1004 33.572C78.9098 33.728 78.7451 33.91 78.6064 34.118C78.4678 34.3087 78.3551 34.5253 78.2684 34.768C78.1991 35.0107 78.1644 35.262 78.1644 35.522V43.322C78.1644 44.154 78.3378 44.7173 78.6844 45.012C79.0311 45.3067 79.6031 45.454 80.4004 45.454V46C80.0018 45.9827 79.4038 45.9653 78.6064 45.948C77.8264 45.9133 77.0204 45.896 76.1884 45.896C75.4084 45.896 74.6198 45.9133 73.8224 45.948C73.0251 45.9653 72.4271 45.9827 72.0284 46V45.454C72.5658 45.454 72.9384 45.324 73.1464 45.064C73.3718 44.804 73.4844 44.31 73.4844 43.582V35.34C73.4844 34.56 73.3804 33.988 73.1724 33.624C72.9644 33.2427 72.5831 33.052 72.0284 33.052V32.506C72.5831 32.558 73.1204 32.584 73.6404 32.584C74.5071 32.584 75.3131 32.558 76.0584 32.506C76.8211 32.4367 77.5231 32.3413 78.1644 32.22V34.092C78.3898 33.6413 78.6671 33.2773 78.9964 33C79.3258 32.7053 79.6984 32.4887 80.1144 32.35C80.5478 32.2113 81.0158 32.142 81.5184 32.142Z" fill="white"/>
</svg>
