<svg width="72" height="47" viewBox="0 0 72 47" fill="none" xmlns="http://www.w3.org/2000/svg">
    <path d="M26.0356 2.592V3.112C25.6543 3.25067 25.2556 3.554 24.8396 4.022C24.4236 4.47267 24.0596 5.20067 23.7476 6.206L19.1716 21.052C19.033 21.0347 18.8856 21.026 18.7296 21.026C18.5736 21.026 18.4176 21.026 18.2616 21.026C18.1056 21.026 17.9496 21.026 17.7936 21.026C17.6376 21.026 17.4903 21.0347 17.3516 21.052L11.8916 4.516C11.7183 3.97867 11.5016 3.61467 11.2416 3.424C10.999 3.23333 10.739 3.12933 10.4616 3.112V2.592C10.947 2.60933 11.519 2.62667 12.1776 2.644C12.8536 2.66133 13.521 2.67 14.1796 2.67C14.9423 2.67 15.653 2.66133 16.3116 2.644C16.9876 2.62667 17.525 2.60933 17.9236 2.592V3.112C17.4036 3.12933 16.9876 3.19 16.6756 3.294C16.381 3.398 16.2076 3.59733 16.1556 3.892C16.121 4.18667 16.2076 4.65467 16.4156 5.296L20.1076 16.58L19.5096 17.646L22.4476 8.312C22.8636 6.99467 23.063 5.96333 23.0456 5.218C23.0283 4.47267 22.829 3.944 22.4476 3.632C22.0663 3.30267 21.5203 3.12933 20.8096 3.112V2.592C21.399 2.60933 21.9536 2.62667 22.4736 2.644C22.9936 2.66133 23.5136 2.67 24.0336 2.67C24.4323 2.67 24.7963 2.66133 25.1256 2.644C25.4723 2.62667 25.7756 2.60933 26.0356 2.592ZM7.47164 2.592V3.112C7.12497 3.164 6.88231 3.294 6.74364 3.502C6.60497 3.69267 6.54431 3.95267 6.56164 4.282C6.59631 4.594 6.67431 4.932 6.79564 5.296L10.7736 16.84L10.0716 17.776L13.3996 8.052L13.7636 8.754L9.68164 21.052C9.54297 21.0347 9.39564 21.026 9.23964 21.026C9.08364 21.026 8.92764 21.026 8.77164 21.026C8.61564 21.026 8.45964 21.026 8.30364 21.026C8.14764 21.026 8.00031 21.0347 7.86164 21.052L2.03764 4.776C1.81231 4.13467 1.54364 3.70133 1.23164 3.476C0.936973 3.25067 0.659639 3.12933 0.399639 3.112V2.592C0.919639 2.60933 1.53497 2.62667 2.24564 2.644C2.95631 2.66133 3.63231 2.67 4.27364 2.67C4.96697 2.67 5.58231 2.66133 6.11964 2.644C6.67431 2.62667 7.12497 2.60933 7.47164 2.592ZM29.6697 21.182C28.8551 21.182 28.1877 21.026 27.6677 20.714C27.1477 20.402 26.7664 19.9947 26.5237 19.492C26.2984 18.9893 26.1857 18.4607 26.1857 17.906C26.1857 17.178 26.3504 16.5887 26.6797 16.138C27.0091 15.67 27.4337 15.2973 27.9537 15.02C28.4911 14.7253 29.0544 14.4827 29.6437 14.292C30.2331 14.1013 30.7877 13.9193 31.3077 13.746C31.8451 13.5553 32.2784 13.3387 32.6077 13.096C32.9371 12.836 33.1017 12.5067 33.1017 12.108V9.794C33.1017 9.51667 33.0497 9.21333 32.9457 8.884C32.8591 8.55467 32.6857 8.26867 32.4257 8.026C32.1657 7.78333 31.7757 7.662 31.2557 7.662C30.9784 7.662 30.7097 7.70533 30.4497 7.792C30.2071 7.86133 29.9904 7.96533 29.7997 8.104C30.4064 8.32933 30.8484 8.65 31.1257 9.066C31.4031 9.46467 31.5417 9.90667 31.5417 10.392C31.5417 11.0853 31.2991 11.6313 30.8137 12.03C30.3284 12.4287 29.7564 12.628 29.0977 12.628C28.4044 12.628 27.8671 12.4113 27.4857 11.978C27.1044 11.5447 26.9137 11.0073 26.9137 10.366C26.9137 9.82867 27.0437 9.378 27.3037 9.014C27.5811 8.63267 27.9884 8.286 28.5257 7.974C29.0457 7.67933 29.6697 7.47133 30.3977 7.35C31.1257 7.21133 31.8884 7.142 32.6857 7.142C33.5351 7.142 34.3237 7.22867 35.0517 7.402C35.7797 7.558 36.4037 7.90467 36.9237 8.442C37.2877 8.82333 37.5217 9.3 37.6257 9.872C37.7297 10.444 37.7817 11.1807 37.7817 12.082V19.05C37.7817 19.4833 37.8077 19.778 37.8597 19.934C37.9291 20.09 38.0417 20.168 38.1977 20.168C38.3364 20.168 38.4664 20.1247 38.5877 20.038C38.7264 19.9513 38.8564 19.8647 38.9777 19.778L39.2377 20.22C38.8564 20.5493 38.3797 20.792 37.8077 20.948C37.2531 21.104 36.6637 21.182 36.0397 21.182C35.2944 21.182 34.7137 21.0953 34.2977 20.922C33.8991 20.7313 33.6131 20.4887 33.4397 20.194C33.2837 19.882 33.1971 19.5527 33.1797 19.206C32.8157 19.778 32.3564 20.2547 31.8017 20.636C31.2644 21 30.5537 21.182 29.6697 21.182ZM32.1397 19.102C32.3304 19.102 32.4951 19.076 32.6337 19.024C32.7897 18.9547 32.9457 18.8333 33.1017 18.66V13.174C32.9804 13.3993 32.8157 13.6247 32.6077 13.85C32.4171 14.058 32.2177 14.2747 32.0097 14.5C31.8017 14.7253 31.6024 14.968 31.4117 15.228C31.2384 15.488 31.0911 15.7913 30.9697 16.138C30.8657 16.4673 30.8137 16.8573 30.8137 17.308C30.8137 17.9667 30.9351 18.4347 31.1777 18.712C31.4377 18.972 31.7584 19.102 32.1397 19.102ZM49.9822 7.142C50.7796 7.142 51.4036 7.246 51.8542 7.454C52.3222 7.64467 52.6776 7.88733 52.9202 8.182C53.1802 8.494 53.3709 8.91 53.4922 9.43C53.6136 9.95 53.6742 10.652 53.6742 11.536V18.582C53.6742 19.31 53.7782 19.804 53.9862 20.064C54.2116 20.324 54.5929 20.454 55.1302 20.454V21C54.7836 20.9827 54.2549 20.9653 53.5442 20.948C52.8509 20.9133 52.1662 20.896 51.4902 20.896C50.7622 20.896 50.0516 20.9133 49.3582 20.948C48.6649 20.9653 48.1449 20.9827 47.7982 21V20.454C48.2489 20.454 48.5609 20.324 48.7342 20.064C48.9076 19.804 48.9942 19.31 48.9942 18.582V10.132C48.9942 9.768 48.9509 9.46467 48.8642 9.222C48.7776 8.97933 48.6389 8.79733 48.4482 8.676C48.2749 8.55467 48.0322 8.494 47.7202 8.494C47.4082 8.494 47.1049 8.572 46.8102 8.728C46.5329 8.884 46.2989 9.10933 46.1082 9.404C45.9349 9.68133 45.8482 10.002 45.8482 10.366V18.582C45.8482 19.31 45.9349 19.804 46.1082 20.064C46.2989 20.324 46.6109 20.454 47.0442 20.454V21C46.7149 20.9827 46.2296 20.9653 45.5882 20.948C44.9469 20.9133 44.2882 20.896 43.6122 20.896C42.8842 20.896 42.1476 20.9133 41.4022 20.948C40.6569 20.9653 40.0936 20.9827 39.7122 21V20.454C40.2496 20.454 40.6222 20.324 40.8302 20.064C41.0556 19.804 41.1682 19.31 41.1682 18.582V10.34C41.1682 9.56 41.0642 8.988 40.8562 8.624C40.6482 8.24267 40.2669 8.052 39.7122 8.052V7.506C40.2669 7.558 40.8042 7.584 41.3242 7.584C42.1909 7.584 42.9969 7.558 43.7422 7.506C44.5049 7.43667 45.2069 7.34133 45.8482 7.22V9.092C46.2642 8.39867 46.8189 7.90467 47.5122 7.61C48.2229 7.298 49.0462 7.142 49.9822 7.142ZM69.1183 0.667998V18.14C69.1183 18.92 69.2223 19.5007 69.4303 19.882C69.6556 20.246 70.0369 20.428 70.5743 20.428V20.974C70.0369 20.922 69.4996 20.896 68.9623 20.896C68.0956 20.896 67.2896 20.922 66.5443 20.974C65.7989 21.026 65.0969 21.1213 64.4383 21.26V3.788C64.4383 3.008 64.3343 2.436 64.1263 2.072C63.9183 1.69067 63.5369 1.5 62.9823 1.5V0.953999C63.5369 1.006 64.0743 1.032 64.5943 1.032C65.4609 1.032 66.2669 1.006 67.0123 0.953999C67.7749 0.884666 68.4769 0.789332 69.1183 0.667998ZM61.7343 7.142C62.4969 7.142 63.1383 7.23733 63.6583 7.428C64.1783 7.60133 64.6376 7.88733 65.0363 8.286L64.7503 8.572C64.5249 8.38133 64.2736 8.24267 63.9963 8.156C63.7189 8.052 63.4589 8 63.2163 8C62.4189 8 61.8209 8.51133 61.4223 9.534C61.0236 10.5567 60.8243 12.1253 60.8243 14.24C60.8243 15.7653 60.9023 16.9527 61.0583 17.802C61.2143 18.634 61.4223 19.2147 61.6823 19.544C61.9596 19.856 62.2543 20.012 62.5663 20.012C63.0516 20.012 63.4849 19.8387 63.8663 19.492C64.2476 19.128 64.4383 18.6773 64.4383 18.14V19.414C64.0916 20.0727 63.6669 20.5667 63.1643 20.896C62.6616 21.208 62.0289 21.364 61.2663 21.364C60.2783 21.364 59.3769 21.1213 58.5623 20.636C57.7649 20.1333 57.1323 19.3533 56.6643 18.296C56.1963 17.2387 55.9623 15.8607 55.9623 14.162C55.9623 12.5847 56.1963 11.2847 56.6643 10.262C57.1496 9.222 57.8256 8.442 58.6923 7.922C59.5589 7.402 60.5729 7.142 61.7343 7.142ZM30.8229 27.592V28.112C30.4242 28.3027 29.9909 28.684 29.5229 29.256C29.0549 29.8107 28.6216 30.6427 28.2229 31.752L23.1529 46C22.9449 45.9827 22.7196 45.974 22.4769 45.974C22.2516 45.9567 22.0176 45.948 21.7749 45.948C21.5496 45.948 21.3156 45.9567 21.0729 45.974C20.8476 45.974 20.6309 45.9827 20.4229 46L13.6109 29.776C13.3682 29.1693 13.1082 28.7447 12.8309 28.502C12.5709 28.2593 12.3196 28.1293 12.0769 28.112V27.592C12.7009 27.6093 13.4289 27.6267 14.2609 27.644C15.1102 27.6613 15.9596 27.67 16.8089 27.67C17.6929 27.67 18.5249 27.6613 19.3049 27.644C20.0849 27.6267 20.7089 27.6093 21.1769 27.592V28.112C20.6396 28.1293 20.2149 28.19 19.9029 28.294C19.5909 28.398 19.4089 28.606 19.3569 28.918C19.3222 29.2127 19.4262 29.672 19.6689 30.296L24.3489 41.814L23.7249 42.62L26.6889 34.3C27.2262 32.7747 27.5122 31.57 27.5469 30.686C27.5816 29.7847 27.4082 29.1347 27.0269 28.736C26.6456 28.3373 26.1082 28.1293 25.4149 28.112V27.592C26.0736 27.6093 26.6542 27.6267 27.1569 27.644C27.6769 27.6613 28.2316 27.67 28.8209 27.67C29.1676 27.67 29.5229 27.6613 29.8869 27.644C30.2509 27.6267 30.5629 27.6093 30.8229 27.592ZM33.6591 25.668C34.5605 25.668 35.2538 25.8587 35.7391 26.24C36.2418 26.604 36.4931 27.1587 36.4931 27.904C36.4931 28.6493 36.2418 29.2127 35.7391 29.594C35.2538 29.958 34.5605 30.14 33.6591 30.14C32.7578 30.14 32.0558 29.958 31.5531 29.594C31.0678 29.2127 30.8251 28.6493 30.8251 27.904C30.8251 27.1587 31.0678 26.604 31.5531 26.24C32.0558 25.8587 32.7578 25.668 33.6591 25.668ZM36.1551 32.22V43.582C36.1551 44.31 36.2591 44.804 36.4671 45.064C36.6925 45.324 37.0738 45.454 37.6111 45.454V46C37.2645 45.9827 36.7445 45.9653 36.0511 45.948C35.3578 45.9133 34.6471 45.896 33.9191 45.896C33.1911 45.896 32.4545 45.9133 31.7091 45.948C30.9638 45.9653 30.4005 45.9827 30.0191 46V45.454C30.5565 45.454 30.9291 45.324 31.1371 45.064C31.3625 44.804 31.4751 44.31 31.4751 43.582V35.34C31.4751 34.56 31.3711 33.988 31.1631 33.624C30.9551 33.2427 30.5738 33.052 30.0191 33.052V32.506C30.5738 32.558 31.1111 32.584 31.6311 32.584C32.4978 32.584 33.3038 32.558 34.0491 32.506C34.8118 32.4367 35.5138 32.3413 36.1551 32.22ZM45.2832 32.142C46.8085 32.142 48.0045 32.5927 48.8712 33.494C49.7552 34.378 50.1972 35.8687 50.1972 37.966H42.0592L42.0072 37.472H46.4012C46.4185 36.6227 46.3838 35.8427 46.2972 35.132C46.2105 34.404 46.0718 33.8233 45.8812 33.39C45.6905 32.9567 45.4305 32.74 45.1012 32.74C44.6332 32.74 44.2518 33.1127 43.9572 33.858C43.6625 34.586 43.4718 35.8427 43.3852 37.628L43.4892 37.836C43.4718 38.0093 43.4632 38.1827 43.4632 38.356C43.4632 38.5293 43.4632 38.7113 43.4632 38.902C43.4632 40.1153 43.6105 41.06 43.9052 41.736C44.2172 42.412 44.5985 42.88 45.0492 43.14C45.5172 43.4 45.9852 43.53 46.4532 43.53C46.6958 43.53 46.9818 43.4953 47.3112 43.426C47.6578 43.3567 48.0305 43.2007 48.4292 42.958C48.8278 42.698 49.2178 42.308 49.5992 41.788L50.0412 41.944C49.8332 42.6373 49.4952 43.3307 49.0272 44.024C48.5765 44.7 47.9872 45.2633 47.2592 45.714C46.5312 46.1473 45.6472 46.364 44.6072 46.364C43.4978 46.364 42.4838 46.1387 41.5652 45.688C40.6638 45.2373 39.9445 44.492 39.4072 43.452C38.8698 42.412 38.6012 41.0167 38.6012 39.266C38.6012 37.602 38.8958 36.25 39.4852 35.21C40.0745 34.1527 40.8718 33.3813 41.8772 32.896C42.8998 32.3933 44.0352 32.142 45.2832 32.142ZM57.9779 32.506V33.052C57.6139 33.052 57.3019 33.078 57.0419 33.13C56.7992 33.1647 56.6345 33.2513 56.5479 33.39C56.4612 33.5287 56.4525 33.7453 56.5219 34.04L58.8359 41.762L58.3939 42.36L60.9159 32.532L61.4619 32.818L58.0039 46C57.5879 45.9653 57.1632 45.948 56.7299 45.948C56.3139 45.948 55.8979 45.9653 55.4819 46L51.4779 34.508C51.2352 33.8147 50.9665 33.3987 50.6719 33.26C50.3945 33.1213 50.1605 33.052 49.9699 33.052V32.506C50.6632 32.558 51.3825 32.6013 52.1279 32.636C52.8732 32.6533 53.6965 32.662 54.5979 32.662C55.1352 32.662 55.6985 32.6447 56.2879 32.61C56.8945 32.5753 57.4579 32.5407 57.9779 32.506ZM71.0819 32.506V33.052C70.7525 33.1733 70.4319 33.4073 70.1199 33.754C69.8079 34.1007 69.5132 34.7073 69.2359 35.574L65.9859 46C65.5699 45.9653 65.1452 45.948 64.7119 45.948C64.2959 45.948 63.8799 45.9653 63.4639 46L60.1619 36.406L60.9419 32.532C61.3925 32.5667 61.8519 32.584 62.3199 32.584C62.7879 32.5667 63.2472 32.5493 63.6979 32.532L66.9219 42.88L66.5839 42.308L67.7799 38.33C68.1439 37.134 68.2825 36.1633 68.1959 35.418C68.1092 34.6553 67.8752 34.0833 67.4939 33.702C67.1125 33.3207 66.6445 33.104 66.0899 33.052V32.506C66.3325 32.5233 66.6445 32.5407 67.0259 32.558C67.4245 32.5753 67.8145 32.5927 68.1959 32.61C68.5772 32.61 68.8719 32.61 69.0799 32.61C69.3919 32.61 69.7559 32.6013 70.1719 32.584C70.5879 32.5667 70.8912 32.5407 71.0819 32.506Z" fill="white"/>
</svg>